<?xml version="1.0" encoding="UTF-8"?>
<svg id="Layer_2" data-name="Layer 2" xmlns="http://www.w3.org/2000/svg" viewBox="0 0 86.34 83.43">
  <defs>
    <style>
      .cls-1 {
        fill: #fff6ea;
      }
    </style>
  </defs>
  <g id="OBJECTS">
    <path class="cls-1" d="M43.17,3.81h0c7.62-7.5,20.53-3.3,22.28,7.24h0c10.57-1.59,18.55,9.39,13.77,18.95h0c9.49,4.93,9.49,18.5,0,23.43h0c4.78,9.56-3.2,20.54-13.77,18.95h0c-1.76,10.54-14.66,14.74-22.28,7.24h0c-7.62,7.5-20.53,3.3-22.28-7.24h0c-10.57,1.59-18.55-9.39-13.77-18.95h0c-9.49-4.93-9.49-18.5,0-23.43h0c-4.78-9.56,3.2-20.54,13.77-18.95h0c1.76-10.54,14.66-14.74,22.28-7.24h0Z"/>
  </g>
</svg>