<?xml version="1.0" encoding="UTF-8"?>
<svg id="Layer_2" data-name="Layer 2" xmlns="http://www.w3.org/2000/svg" viewBox="0 0 84.45 82.51">
  <defs>
    <style>
      .cls-1 {
        fill: #fff6ea;
      }
    </style>
  </defs>
  <g id="OBJECTS">
    <path class="cls-1" d="M83.4,29.99c-2.96-9.17-11.46-15-20.6-15C59.99,6.29,51.83,0,42.2,0s-17.68,6.21-20.54,14.82c-9.07,0-17.52,5.74-20.54,14.82-3.04,9.14.36,18.88,7.73,24.29-2.89,8.67-.04,18.57,7.72,24.28,7.76,5.7,18.06,5.46,25.48.11,7.37,5.42,17.67,5.75,25.49.11,7.81-5.64,10.75-15.51,7.94-24.21,7.41-5.35,10.9-15.05,7.94-24.21Z"/>
  </g>
</svg>