<?xml version="1.0" encoding="UTF-8"?>
<svg id="Layer_2" data-name="Layer 2" xmlns="http://www.w3.org/2000/svg" viewBox="0 0 439.74 498.24">
  <defs>
    <style>
      .cls-1 {
        fill: #e2ba13;
      }

      .cls-2 {
        fill: #72a814;
      }

      .cls-3 {
        fill: #ede9f8;
      }
    </style>
  </defs>
  <g id="logo">
    <g>
      <g>
        <path class="cls-3" d="M58.7,110.39L147.79,0h63.73l-80.75,98.54,81.41,132.23h-62.39l-54.39-89.19-36.7,44.91v44.28H4.64V0h54.06v110.39Z"/>
        <path class="cls-2" d="M218.85,0h60.39l41.38,74.84c4,7.17,6.67,12.79,9.34,18.71,3.01-5.61,5.68-11.54,9.68-19.03L381.01,0h58.73l-83.42,143.14v87.63h-54.05v-87.63L218.85,0Z"/>
      </g>
      <g>
        <path class="cls-1" d="M0,498.24v-47.4l110.11-136.59H3.34v-46.78h174.5v45.22l-111.78,138.77h115.11v46.78H0Z"/>
        <path class="cls-3" d="M215.2,498.24v-230.77h54.06v91.06h95.42v-91.06h54.06v230.77h-54.06v-92.93h-95.42v92.93h-54.06Z"/>
      </g>
    </g>
  </g>
</svg>