<svg width="48" height="47" viewBox="0 0 48 47" fill="none" xmlns="http://www.w3.org/2000/svg">
<path d="M7.86475 33.2275C7.86902 32.7275 7.86886 32.7275 7.86869 32.7275L7.8683 32.7275L7.86737 32.7275L7.86487 32.7274L7.85739 32.7274L7.83304 32.7276C7.81285 32.7279 7.78484 32.7285 7.75072 32.7298C7.68292 32.7325 7.58875 32.7381 7.4825 32.7503C7.28947 32.7723 6.98225 32.8231 6.73434 32.9645C6.6053 33.0381 6.44663 33.1621 6.3565 33.3643C6.25925 33.5825 6.27713 33.8109 6.35948 34.0119C6.50325 34.3628 6.87202 34.7045 7.40591 35.0697L7.43953 35.0927L7.47253 35.1081L7.47329 35.1085L7.47338 35.1085L7.47463 35.1091L7.47723 35.1105C7.48314 35.1135 7.49454 35.1195 7.51095 35.1288C7.54377 35.1473 7.5966 35.1789 7.66565 35.226C7.80368 35.32 8.00679 35.476 8.24454 35.7134C8.71684 36.185 9.33263 36.9844 9.84536 38.2721C9.84935 38.2843 9.85483 38.3006 9.86193 38.3208C9.87632 38.3616 9.89737 38.4181 9.92607 38.4877C9.98343 38.6267 10.0717 38.8187 10.1989 39.0421C10.453 39.4882 10.8656 40.0651 11.5025 40.5937C12.7191 41.6033 14.6852 42.3805 17.7467 41.8609C17.7516 42.3302 17.7564 42.7647 17.7607 43.1581C17.7717 44.156 17.7798 44.889 17.7798 45.2516C17.7798 45.4611 17.7067 45.6503 17.58 45.7659C17.4705 45.8657 17.2477 45.9773 16.7945 45.9014C7.65423 42.8431 1.06836 34.226 1.06836 24.082C1.06836 11.3752 11.3765 1.08203 24.1051 1.08203C36.8337 1.08203 47.1418 11.3752 47.1418 24.082C47.1418 34.228 40.5733 42.8449 31.3551 45.8631C30.8899 45.9483 30.6703 45.8343 30.5658 45.7381C30.4421 45.6242 30.3716 45.4355 30.3716 45.232C30.3716 44.9814 30.3737 44.5401 30.3766 43.9471C30.3781 43.6399 30.3797 43.2919 30.3814 42.9087C30.3863 41.7872 30.3912 40.3666 30.3912 38.7891C30.3912 37.059 29.9376 35.7245 29.3056 34.8195C31.6622 34.4798 34.0683 33.7833 35.9612 32.2011C38.1339 30.3851 39.5509 27.472 39.5509 22.8483C39.5509 20.2688 38.6607 18.1312 37.2095 16.4346C37.5252 15.4847 38.0361 13.1575 36.8691 10.1535L36.7823 9.93009L36.5539 9.85782L36.4031 10.3345C36.5539 9.85782 36.5534 9.85766 36.5529 9.85751L36.5519 9.85719L36.5497 9.85651L36.5448 9.85502L36.5327 9.85152C36.529 9.85048 36.5249 9.84937 36.5206 9.8482C36.5142 9.84651 36.5072 9.8447 36.4995 9.84279C36.4733 9.83634 36.4392 9.82882 36.3969 9.82129C36.3123 9.80621 36.1955 9.79117 36.0458 9.78453C35.7459 9.77125 35.3164 9.7918 34.7502 9.91143C33.6506 10.1438 32.0401 10.7488 29.8613 12.2004C27.9968 11.7001 26.0309 11.4596 24.0708 11.4404V11.4403L24.061 11.4404C22.1006 11.4596 20.1345 11.7001 18.2699 12.2006C16.0814 10.7486 14.466 10.1437 13.3642 9.91138C12.7969 9.79179 12.3668 9.77125 12.0667 9.78453C11.9168 9.79116 11.8 9.8062 11.7153 9.82128C11.673 9.82881 11.6389 9.83633 11.6127 9.84278C11.5996 9.84601 11.5886 9.84896 11.5795 9.85151L11.5674 9.85502L11.5625 9.85651L11.5603 9.85719L11.5593 9.85751C11.5588 9.85766 11.5583 9.85782 11.7091 10.3345L11.5583 9.85782L11.3298 9.93009L11.243 10.1535C10.0818 13.1426 10.5797 15.4684 10.9327 16.4423C9.46781 18.1383 8.58082 20.2736 8.58082 22.8483C8.58082 27.4626 9.99811 30.375 12.1673 32.1955C14.0599 33.7839 16.4652 34.4888 18.8171 34.8367C18.3887 35.4536 18.0461 36.2628 17.8687 37.2626C17.2123 37.5278 16.2406 37.8076 15.2206 37.7159C14.0998 37.6151 12.8734 37.0638 11.9073 35.4068C11.9068 35.4059 11.9063 35.405 11.9058 35.4041L11.9038 35.4006L11.8896 35.3762C11.8776 35.3559 11.8605 35.3276 11.8385 35.2926C11.7945 35.2226 11.7303 35.1249 11.6462 35.0084C11.4783 34.776 11.2287 34.465 10.8985 34.1474C10.242 33.5157 9.23596 32.8287 7.90209 32.7288L7.88557 32.7276L7.86902 32.7275L7.86475 33.2275Z" fill="white" stroke="white"/>
</svg>
