<svg width="49" height="48" viewBox="0 0 49 48" fill="none" xmlns="http://www.w3.org/2000/svg">
<path d="M14.6936 41.4031H15.1936V40.9031V17.9906V17.4906H14.6936H7.55742H7.05742V17.9906V40.9031V41.4031H7.55742H14.6936ZM33.771 40.9031V41.4031H34.271H41.3978V40.9031H41.8978V28.3313C41.8978 25.2358 41.5688 22.381 40.2513 20.2947C38.9004 18.1557 36.5769 16.9188 32.8438 16.9188C29.9595 16.9188 27.7987 18.17 26.5081 19.6584V17.9906V17.4906H26.0081H19.1724H18.6724V17.9906V40.9031V41.4031H19.1724H26.2898H26.7898V40.9031V29.5781C26.7898 28.0917 26.9345 26.7324 27.4731 25.754C27.7359 25.2766 28.0904 24.8943 28.5722 24.6273C29.0569 24.3587 29.6999 24.1906 30.5621 24.1906C31.3979 24.1906 31.9818 24.3848 32.4005 24.6768C32.8201 24.9696 33.1166 25.3905 33.3248 25.9171C33.7528 26.9993 33.771 28.4167 33.771 29.7656V40.9031ZM3.97996 0.5H44.9471C46.6472 0.5 48.0057 1.83671 48.0057 3.45938V44.5406C48.0057 46.1548 46.6464 47.5 44.9471 47.5H3.97996C2.28329 47.5 0.930664 46.1574 0.930664 44.5312V3.45938C0.930664 1.83501 2.28151 0.5 3.97996 0.5ZM6.48465 10.7437C6.48465 13.2995 8.55975 15.3688 11.1255 15.3688C13.6833 15.3688 15.7569 13.2886 15.7569 10.7437C15.7569 8.18875 13.6826 6.11875 11.1255 6.11875C8.55975 6.11875 6.48465 8.18801 6.48465 10.7437Z" fill="white" stroke="white"/>
</svg>
