<svg width="105" height="98" viewBox="0 0 105 98" fill="none" xmlns="http://www.w3.org/2000/svg">
<g clip-path="url(#clip0_55_938)">
<path d="M11.4415 22.3716L28.7938 0.848633H41.21L25.4778 20.0661L41.3366 45.8455H29.1862L18.5925 28.4523L11.4415 37.2059V45.8455H0.898438V0.848633H11.4288V22.3716H11.4415Z" fill="white"/>
<path d="M42.6401 0.848633H54.4109L62.4732 15.4422C63.2579 16.8357 63.7768 17.9378 64.2958 19.0906C64.878 18.0012 65.3969 16.8357 66.1816 15.3789L74.2313 0.848633H85.6729L69.4217 28.7563V45.8455H58.8913V28.7563L42.6401 0.848633Z" fill="#72A814"/>
<path d="M0 97.9998V88.7521L21.4531 62.1112H0.645492V52.9902H34.6414V61.8072L12.8592 88.8661H35.2869V97.9871H0V97.9998Z" fill="#E2BA13"/>
<path d="M41.9316 97.9998V53.0029H52.462V70.7635H71.0547V53.0029H81.5851V97.9998H71.0547V79.8719H52.462V97.9998H41.9316Z" fill="white"/>
<path d="M97.8111 14.3909C101.781 14.3909 105 11.1694 105 7.19545C105 3.22151 101.781 0 97.8111 0C93.8407 0 90.6221 3.22151 90.6221 7.19545C90.6221 11.1694 93.8407 14.3909 97.8111 14.3909Z" fill="#E2BA13"/>
</g>
<defs>
<clipPath id="clip0_55_938">
<rect width="105" height="98" fill="white"/>
</clipPath>
</defs>
</svg>
