<svg width="54" height="42" viewBox="0 0 54 42" fill="none" xmlns="http://www.w3.org/2000/svg">
<path d="M5.43058 4.71429L22.0829 17.2333L22.0885 17.2379C23.9375 18.5878 24.8626 19.2631 25.8758 19.524C26.7714 19.7546 27.7128 19.7546 28.6083 19.524C29.6225 19.2629 30.5502 18.5856 32.4025 17.2333C32.4025 17.2333 43.0835 9.07327 49.0543 4.71429M2.7041 31.3148V10.6862C2.7041 7.64596 2.7041 6.12468 3.29844 4.96345C3.82123 3.942 4.65482 3.11213 5.68087 2.59168C6.84732 2 8.37543 2 11.4294 2H43.0566C46.1105 2 47.6353 2 48.8018 2.59168C49.8278 3.11213 50.6642 3.942 51.187 4.96345C51.7808 6.12355 51.7808 7.64298 51.7808 10.6773V31.324C51.7808 34.3583 51.7808 35.8756 51.187 37.0357C50.6642 38.0571 49.8278 38.8884 48.8018 39.4089C47.6365 40 46.1124 40 43.0644 40H11.4204C8.37244 40 6.84618 40 5.68087 39.4089C4.65482 38.8884 3.82123 38.0571 3.29844 37.0357C2.7041 35.8744 2.7041 34.3551 2.7041 31.3148Z" stroke="white" stroke-width="4" stroke-linecap="round" stroke-linejoin="round"/>
</svg>
