<?xml version="1.0" encoding="UTF-8"?>
<svg id="Layer_2" data-name="Layer 2" xmlns="http://www.w3.org/2000/svg" viewBox="0 0 453.41 365.32">
  <defs>
    <style>
      .cls-1 {
        stroke-linejoin: round;
      }

      .cls-1, .cls-2, .cls-3 {
        fill: none;
      }

      .cls-1, .cls-3 {
        stroke: #000;
        stroke-linecap: round;
        stroke-width: 3px;
      }

      .cls-2 {
        stroke: #fff;
      }

      .cls-2, .cls-3 {
        stroke-miterlimit: 10;
      }

      .cls-4 {
        fill: #fff;
      }

      .cls-5 {
        fill: #5b5049;
      }

      .cls-6 {
        opacity: .5;
      }
    </style>
  </defs>
  <g id="Line_Art" data-name="Line Art">
    <g>
      <g>
        <g>
          <path class="cls-4" d="M160.54,98.75l-13.55,40.3c-1.92,5.93-.77,8.83,3.47,8.69-.26,9.96,4.53,10.03,11.47,5.91,1.25,8.45,6.53,10.23,16.33,4.52,6.96,3.98,19.52-.48,18.76-12.16,7.89,3.17,11.82-2.46,12.51-15.29,7.32-25.86-3.25-48.62-22.54-69.87,2.86-1.05,5.66-1.1,8.39,0-.63-7.05-5.87-12-16.52-14.49,2.04-2.79,5-4.14,8.39-4.83-2.56-3.14-7.6-4.94-14.74-5.59,1.28-2.98,4.36-5.09,8.64-6.61-8.17-5.54-15.82-4.76-22.88,3.3-1.55-6.85-2.29-13.58,0-19.83-3.63-1.23-6.61,2.33-9.15,9.15.11-2.3-.65-4.9-1.78-7.63-1.62,5.51-4.22,8.73-7.54,10.26,4.01-8.48-3.29-15.98-20.66-22.62,1.36,3.7,1.31,7.47,0,11.31-11.66-6.57-23.82-9.72-36.7-7.81,3.4,1.81,5.14,4.3,4.37,7.81-12.06-2.63-23.84,1.75-35.39,11.31,5.7-.86,10.9-.38,15.29,2.28-16.28,8.08-24.76,18.54-20.97,32.77-3.96,1.37-5.02,2.91-3.77,4.58-17.92,6.26-24.88,18.72-12.28,15.35-8.02,15-9.47,24.87,0,26.23-2.78,15.7-.08,15.55,4.46,10.04-3.41,20.37-.42,20.06,4.19,14.51-2.27,15.93-.13,28.15,7.53,35.71-9.05,20.3-5.36,19,1.86,11.71-7.27,25.65-4.74,28.73,3.13,19.53-2.76,23.58.64,29.6,8.66,22.47,6.29,15.19,13.57,24.08,21.92,26.16,2.9,12.52,6.35,13.37,10.13,7,3.88,18.69,7.9,21.51,12.02,13.08,1.32,11.02,6.06,14.33,12.82,13.08,2.43,12.61-.46,20.37-6.68,25.1-29.91,23.5,19.22,54.74,37.92,31.24,9.08-1.36,15.77-5.99,16.55-18.69,3.47,5.99,6.76,2.18,9.88-11.48,7.06-.5,10.23-13.12,10.68-34.18"/>
          <path class="cls-4" d="M183.19,290.12c3.48.79,8.02-1.03,12.88-3.62-16.31,15.4-4.99,10.57,11.72,1.81-3.82,14.12,9.6,4.76,25.14-7.48,10.3,1.64,20.69-4.41,31.19-18.71"/>
          <path class="cls-4" d="M100.96,269.81c-2.49,6.56-6.19,10.65-10.85,12.79-12.08,8.52-1.32,27.71,16.03,24.81"/>
          <path class="cls-4" d="M156.73,332.22c3.72,9.86,17.6,14.85,34.49,6.95,5.08-2.11,8.93-1.78,11.38,1.29,4.82,6.15,10.52,5.18,16.34,3.31,22.74,4.81,47.03,7.02,53.05-4.04,6.47,4.63,12.18,2.76,17.07-5.87,3.12,7.84,7.57,4.87,13.58-10.65,5.03,9.39,13.22,4.31,27.54-28.82,9.6,3.98,21.11-6.61,5.69-42.96,3.64-11.55.97-21.42-11.01-28.82,9.68-1.82,10.2-6.86-4.04-17.07-1.75-12.23-7.18-22.09-22.03-25.88,8.21-8.26,2.81-14.01-12.3-17.99,11.33-6.19,3.43-10.36-11.75-13.77,5.13-7.28,3.86-12.48-17.99-11.01-5.04-4.58-11.09-6.5-17.81-6.61,2.49-6.21-5.23-6.4-17.26-4.04,4.44-8.05-.57-7.79-10.49-3.18"/>
          <path class="cls-4" d="M45.73,59.64c5.37-1.51,11.25-1.31,17.78,1.18"/>
          <path class="cls-4" d="M342.04,269.81c28.53-32.16,79.17-24.7,54.15-9.75,33.63-8.42,51.34,11.4,27.69,19.25,28.32,2.28,38.69,53.8,4.09,61.56-10.87,17.4-23.88,25.15-39.95,19.07-11.42,6.31-20.54,7.73-20.88-9.53-14.69,7.35-17.09,1.57-7.72-16.8-7.02,2.11-12.31,7.94-16.01,17.25-12.27-16.73-4.39-35.62,13.28-38.13,12.34.2,20.49-4.86,23.61-16.22"/>
          <path class="cls-2" d="M326.37,305.77c12.01-2.75,23.33-3.68,30.32,6.95"/>
          <ellipse class="cls-4" cx="186.42" cy="191.45" rx="43.27" ry="59.77"/>
          <ellipse class="cls-4" cx="111.16" cy="284.78" rx="12.59" ry="25.3"/>
        </g>
        <path class="cls-4" d="M321.21,308.36c6.43,0,6.45-10,0-10s-6.45,10,0,10h0Z"/>
        <path class="cls-4" d="M321.84,308.11c8.05-4.48,19.35-6.21,28.46-4.37,7.96,1.61,12.75,9.86,19.88,13.34,5.76,2.81,10.83-5.81,5.05-8.63-4.55-2.22-7.83-5.94-11.75-9.04s-8.41-5.17-13.58-5.78c-11.17-1.32-23.25.36-33.11,5.85-5.62,3.13-.59,11.77,5.05,8.63h0Z"/>
        <path class="cls-4" d="M368.34,309.09c-2.14-2.26-4.27-4.53-6.41-6.79-3.24-3.43-8.12-.5-8.54,3.54-.29,2.84,1.18,4.96,3.5,6.41,4.27,2.68,9.37-2.61,6.84-6.84-2.87-4.79-7.03-8-12.38-9.62-5.41-1.63-8.83,6.39-3.85,9.14.75.41,1.5.83,2.25,1.24,1.28-3.05,2.57-6.09,3.85-9.14-5.31-2.22-10.67-3.46-16.37-4.13s-6,6.77-2.52,9.32c5.6,4.1,14.1.69,20.42.55,8.51-.19,15.81,1.99,23.99,3.77,5.27,1.15,11.73-3.44,8.13-9.17s-11.82-2.6-15.37,1.05c-3.31,3.4-.03,10.06,4.86,8.36,5.63-1.96,9.13-7.6,6.99-13.51-1.28-3.52-5.49-4.95-8.36-2.21-3.76,3.59-4.85,8.02-4,13.05.52,3.06,4.86,4.71,7.34,2.99,4.36-3.02,4.88-9.53-.4-12.1-6.02-2.94-10.72,2.94-11.73,8.2-.87,4.56,4.72,8.82,8.36,4.86,2.89-3.15,5.27-7.42,4.67-11.86-.54-3.99-4-6.86-8.06-6.6-8.22.52-14.16,15.91-3.99,17.86s9.86-12.81,5.12-17.91c-5.63-6.05-16.81-3.81-18.33,4.78-1,5.67,5.75,8.51,9.14,3.85,3.91-5.37,8.09-17.09-.1-20.91-7.53-3.51-14.67,4.95-16.99,11.1-1.6,4.25,3.81,7.67,7.34,5.65s6.41-5.24,7.49-9.3-.36-8.94-5.06-9.81c-8.27-1.52-15.31,8.9-17.39,15.49-1.54,4.87,4.9,8.26,8.36,4.86,3.73-3.66,5.56-8.02,5.77-13.23.18-4.48-5.51-6.39-8.54-3.54-4.55,4.3-7.57,9.64-8.79,15.79-.51,2.59.71,5.47,3.49,6.15,11.88,2.92,12.2-14.7,12.51-22.28.08-2.02-1.6-4.44-3.67-4.82-1.81-.33-3.13-.39-4.92.1,1.88,2.45,3.76,4.9,5.65,7.34.43-.78,1.04-1.38,1.82-1.8,4.7-3.05,1.78-10.55-3.85-9.14l.83.04,3.49,3.49-.11-.61c-.57-3.13-4.8-4.62-7.34-2.99l-1.41.9c-5.41,3.46-.4,12.11,5.05,8.63l1.41-.9-7.34-2.99.11.61c.3,1.62,1.93,3.13,3.49,3.49s2.87.36,4.48-.04c-1.28-3.05-2.57-6.09-3.85-9.14-2.27,1.47-3.92,3.13-5.41,5.39-2.45,3.72,1.6,8.45,5.65,7.34l-.4-.1-3.67-4.82c-.11,2.69-.3,5.36-.73,8.03-.18,1.13-.39,2.25-.64,3.36-.09.47-.2.94-.33,1.4-.46,1.13.16,1.08,1.85-.15l3.49,6.15c.91-4.59,2.81-8.16,6.22-11.38l-8.54-3.54c-.11,2.61-1,4.35-2.84,6.16l8.36,4.86c.59-1.88,1.41-3.56,2.7-5.07.69-.81,3.74-2.58,2.78-3.23l-2.3-2.99c.25,1.62-1.78,2.97-2.91,3.62,2.45,1.88,4.9,3.76,7.34,5.65.36-1.04.92-1.96,1.67-2.77,1.62-.78,1.69-1.25.2-1.41-1.11,2.16-1.58,4.24-3.07,6.29,3.05,1.28,6.09,2.57,9.14,3.85.07-.39.41-1.64,1.21-.83l.71.98c.03,1.58.8,1.72,2.32.42l3.54,1.46c1.9,1.14,1.18.82-2.17-.96-.28,1.15-.85,2.13-1.72,2.93,2.79,1.62,5.57,3.24,8.36,4.86.89-2.46-.48-4.1-4.09-4.93l2.3-2.99-.77.53,7.34,2.99c-.24-1.45.45-2.38,1.43-3.32l-8.36-2.21c.48.45.48.85,0,1.21,1.62,2.79,3.24,5.57,4.86,8.36.66-.68,2.16-.97,1.46-1.28l-2.3-2.99-.03-1.22,2.3-2.99c1.37-.3,1.07-.58-.9-.84-.86-.27-1.72-.52-2.59-.75-1.73-.47-3.48-.87-5.25-1.21-3.66-.7-7.4-1.18-11.12-1.37s-7.18-.11-10.76.24c-2.67.26-7.82,2.1-10,.5l-2.52,9.32c4.76.56,9.3,1.93,13.71,3.78,5.27,2.21,8.72-6.44,3.85-9.14-.75-.41-1.5-.83-2.25-1.24-1.28,3.05-2.57,6.09-3.85,9.14,2.87.87,4.86,2.45,6.4,5.02,2.28-2.28,4.56-4.56,6.84-6.84l1.45,2.22-8.54,3.54,6.41,6.79c4.43,4.69,11.49-2.39,7.07-7.07h0Z"/>
      </g>
      <g>
        <g>
          <path class="cls-1" d="M162.63,98.29c-9.35,12.69-14.17,26.07-13.55,40.3-1.92,5.93-.77,8.83,3.47,8.69-.26,9.96,4.53,10.03,11.47,5.91,1.25,8.45,6.53,10.23,16.33,4.52,6.96,3.98,19.52-.48,18.76-12.16,7.89,3.17,11.82-2.46,12.51-15.29,7.32-25.86-3.25-48.62-22.54-69.87,2.86-1.05,5.66-1.1,8.39,0-.63-7.05-5.87-12-16.52-14.49,2.04-2.79,5-4.14,8.39-4.83-2.56-3.14-7.6-4.94-14.74-5.59,1.28-2.98,4.36-5.09,8.64-6.61-8.17-5.54-15.82-4.76-22.88,3.3-1.55-6.85-2.29-13.58,0-19.83-3.63-1.23-6.61,2.33-9.15,9.15.11-2.3-.65-4.9-1.78-7.63-1.62,5.51-4.22,8.73-7.54,10.26,4.01-8.48-3.29-15.98-20.66-22.62,1.36,3.7,1.31,7.47,0,11.31-11.66-6.57-23.82-9.72-36.7-7.81,3.4,1.81,5.14,4.3,4.37,7.81-12.06-2.63-23.84,1.75-35.39,11.31,5.7-.86,10.9-.38,15.29,2.28-16.28,8.08-24.76,18.54-20.97,32.77-3.96,1.37-5.02,2.91-3.77,4.58-17.92,6.26-24.88,18.72-12.28,15.35-8.02,15-9.47,24.87,0,26.23-2.78,15.7-.08,15.55,4.46,10.04-3.41,20.37-.42,20.06,4.19,14.51-2.27,15.93-.13,28.15,7.53,35.71-9.05,20.3-5.36,19,1.86,11.71-7.27,25.65-4.74,28.73,3.13,19.53-2.76,23.58.64,29.6,8.66,22.47,6.29,15.19,13.57,24.08,21.92,26.16,2.9,12.52,6.35,13.37,10.13,7,3.88,18.69,7.9,21.51,12.02,13.08,1.32,11.02,6.06,14.33,12.82,13.08,2.43,12.61-.46,20.37-6.68,25.1-29.91,23.5,19.22,54.74,37.92,31.24,9.08-1.36,15.77-5.99,16.55-18.69,3.47,5.99,6.76,2.18,9.88-11.48,7.06-.5,10.23-13.12,10.68-34.18"/>
          <path class="cls-1" d="M185.28,289.66c3.48.79,8.02-1.03,12.88-3.62-16.31,15.4-4.99,10.57,11.72,1.81-3.82,14.12,9.6,4.76,25.14-7.48,10.3,1.64,20.69-4.41,31.19-18.71"/>
          <path class="cls-1" d="M103.05,269.35c-2.49,6.56-6.19,10.65-10.85,12.79-12.08,8.52-1.32,27.71,16.03,24.81"/>
          <path class="cls-1" d="M158.82,331.76c3.72,9.86,17.6,14.85,34.49,6.95,5.08-2.11,8.93-1.78,11.38,1.29,4.82,6.15,10.52,5.18,16.34,3.31,22.74,4.81,47.03,7.02,53.05-4.04,6.47,4.63,12.18,2.76,17.07-5.87,3.12,7.84,7.57,4.87,13.58-10.65,5.03,9.39,13.22,4.31,27.54-28.82,9.6,3.98,21.11-6.61,5.69-42.96,3.64-11.55.97-21.42-11.01-28.82,9.68-1.82,10.2-6.86-4.04-17.07-1.75-12.23-7.18-22.09-22.03-25.88,8.21-8.26,2.81-14.01-12.3-17.99,11.33-6.19,3.43-10.36-11.75-13.77,5.13-7.28,3.86-12.48-17.99-11.01-5.04-4.58-11.09-6.5-17.81-6.61,2.49-6.21-5.23-6.4-17.26-4.04,4.44-8.05-.57-7.79-10.49-3.18"/>
          <path class="cls-1" d="M47.82,59.18c5.37-1.51,11.25-1.31,17.78,1.18"/>
          <path class="cls-1" d="M344.12,269.35c28.53-32.16,79.17-24.7,54.15-9.75,33.63-8.42,51.34,11.4,27.69,19.25,28.32,2.28,38.69,53.8,4.09,61.56-10.87,17.4-23.88,25.15-39.95,19.07-11.42,6.31-20.54,7.73-20.88-9.53-14.69,7.35-17.09,1.57-7.72-16.8-7.02,2.11-12.31,7.94-16.01,17.25-12.27-16.73-4.39-35.62,13.28-38.13,12.34.2,20.49-4.86,23.61-16.22"/>
          <path class="cls-1" d="M328.46,305.31c12.01-2.75,23.33-3.68,30.32,6.95"/>
          <ellipse cx="84" cy="66.89" rx="6.81" ry="9.47" transform="translate(-1.09 132.39) rotate(-76.12)"/>
          <circle cx="69.49" cy="50.37" r="5.79"/>
          <circle cx="115.72" cy="61.95" r="5.79"/>
          <path class="cls-3" d="M71.03,83.12c4.64-.94,9.28,0,13.92,2.83"/>
          <path class="cls-1" d="M91.2,91.28c.16,8.77,2.46,13.73,7.46,13.89,1.83,5.9,4.97,5.5,8.49,3.34,5.05,3.62,8.56,4.43,9.77,1.03"/>
          <path class="cls-1" d="M65.6,84.35c-1.39,6.02-3.91,7.61-7.02,6.92-2.19,3.01-4.62,4.52-7.32,4.27"/>
          <path class="cls-1" d="M53.53,37.07c-18.67,12.54-35.96,26.92-48.8,47.28-5.84,11.66-3.13,15.87,2.96,17.14.11,8.68,4.73,10.9,11.35,10.21,2.32,6.51,5.57,8.66,10.08,4.99"/>
          <path class="cls-1" d="M55.61,133.84c-.2,7.86,3.06,15.74,8.76,21.15,2.04,1.94,4.5,3.62,7.29,3.98s5.94-.9,7.06-3.49c2.51,5.25,9.37,7.93,14.77,5.76,3.96,1.15,7.92,2.29,11.87,3.44"/>
          <path class="cls-1" d="M94.84,208.31c-2.19,6.97,1.4,15.27,7.96,18.46"/>
          <path class="cls-1" d="M109.26,217.84c4.12,6.07,10.16,10.8,17.04,13.34"/>
          <path class="cls-1" d="M131.82,221.23c2.75.94,5.5,1.88,8.25,2.82"/>
          <path class="cls-1" d="M113.01,158.53c2.21,1.84,4.41,3.68,6.62,5.51"/>
          <path class="cls-1" d="M207.86,214.68c-2.65,7.56-6.82,14.58-12.19,20.52"/>
          <path class="cls-1" d="M223.27,214.58c-.84,5.38-4.66,10.19-9.7,12.24"/>
          <path class="cls-1" d="M238.2,211.82l-3.46,5.76"/>
          <path class="cls-1" d="M275.41,292.35c-1.55,11.65-7.85,22.6-17.13,29.8"/>
          <path class="cls-1" d="M286.97,302.13c-1.61,2.8-3.22,5.59-4.83,8.39"/>
          <path class="cls-1" d="M306.52,287.53c-.09,7.08-3.83,14.02-9.7,17.99"/>
          <path class="cls-1" d="M413.97,312.63c-.02,5.89-2.75,11.71-7.25,15.5"/>
          <path class="cls-1" d="M424.65,314.85l-1.14,10.01"/>
          <path class="cls-1" d="M432.8,303.84c2.62,6.89,2.29,14.84-.89,21.49"/>
        </g>
        <g class="cls-6">
          <path class="cls-5" d="M112.65,54.34c-10.97-2.45-19.26,9.49-12.88,18.89s21.04,6.55,25.98-3.12c2.26-4.42,2.34-10.25-1.04-14.14s-9.2-5.17-13.43-2.1c-8.45,6.12-1.65,19.98,8.36,17.27,11.13-3.02,9.71-18.47-.84-21.12s-18.12,12.46-7.72,17.7,18.2-8.63,10.14-15.9c-8.82-7.95-21.19,3.36-17.94,13.43,1.81,5.61,8.11,8.18,13.44,6.03s7.92-8.37,6.32-13.76-7.58-9.52-13.27-7.86c-5.39,1.57-8.31,7.33-6.81,12.61.67,2.36,3.63,4.54,6.15,3.49,9.7-4.05,2.84-17.37-5.92-12.15-9.55,5.7-1.15,18.29,5.17,22.5,4.03,2.68,8.59,4.42,12.59,7.19s7.48,6.16,10.42,9.93c6.29,8.07,9.94,17.99,10.42,28.19.25,5.44,8.43,7.02,9.82,1.33,1.93-7.93,4.04-17.25,11.35-21.97,2.38-1.54,3.04-4.32,1.79-6.84-6.31-12.71-14.87-24.31-25.32-33.93-8.63-7.94-22.63-19.22-33.29-7.65-2.05,2.22-1.99,6.35,1.01,7.85,14.85,7.44,27.7,17.68,38.31,30.45l7.07-7.07c-5.83-6.09-12.44-11.27-19.75-15.49-4.3-2.49-9.41,2.51-6.84,6.84,4.17,7.04,8.72,13.79,13.68,20.3,2.62-2.02,5.24-4.04,7.85-6.06-7.16-6.61-14.08-13.46-20.77-20.55-2.02,2.62-4.04,5.24-6.06,7.85,12.5,6.7,22.31,16.7,28.79,29.31,1.68,3.26,6.96,3.26,8.63,0,2.16-4.21,1.36-7.88-.62-12.01-2.42-5.03-5.2-9.91-7.94-14.77-5.49-9.74-11.39-19.24-17.63-28.52-1.88,2.45-3.76,4.9-5.65,7.34,7.67,1.15,13.4,9.58,17.32,15.64,4.44,6.85,7.54,14.23,9.55,22.13,1.58,6.23,11.23,3.59,9.64-2.66-2.47-9.73-6.59-19.05-12.41-27.25-5.2-7.32-11.99-16.1-21.45-17.51-3.88-.58-8.34,3.33-5.65,7.34,5.02,7.48,9.83,15.09,14.38,22.87,2.19,3.75,4.33,7.54,6.4,11.36.9,1.65,6.26,9.32,5.41,10.98h8.63c-7.2-14.01-18.49-25.46-32.38-32.9-5-2.68-10.01,3.66-6.06,7.85,6.68,7.09,13.61,13.94,20.77,20.55,3.94,3.64,11.46-1.34,7.85-6.06-4.96-6.5-9.51-13.26-13.68-20.3l-6.84,6.84c6.61,3.82,12.45,8.42,17.72,13.93,4.53,4.73,11.11-2.2,7.07-7.07-11.09-13.36-24.82-24.24-40.33-32.02l1.01,7.85c6.85-7.43,20.44,8.59,24.9,13.35,7.32,7.8,13.26,16.64,18.01,26.21l1.79-6.84c-9.77,6.31-13.32,17.17-15.95,27.95l9.82,1.33c-.6-12.94-5.22-25.17-13.35-35.27-4.02-4.99-8.88-9.33-14.31-12.74-2.6-1.63-5.39-2.89-8.07-4.38-1.4-.78-2.89-1.58-4.09-2.68s-6.65-10.02-7.67-8.31l2.99-2.3-.84.35,6.15,3.49c.04.13,1.32.97.31,2.49.6-.9.03-2.17,1.52-2.94.41.82.7.68.86-.43.49.75,1.16,1.27,2,1.58.63.95-.17,1.14-.19,1.58-.13,2.99-.68,6.66-5.01,7.31-4.62.69-5.97-6.07-2.11-5.2,6.27,1.4,8.95-8.24,2.66-9.64h0Z"/>
        </g>
        <g class="cls-6">
          <path class="cls-5" d="M69.01,49.33c-1.16,3.06-1.93,6.11-2.39,9.35-.59,4.18,2.24,7.22,6.51,6.51,6.69-1.12,9.5-9.73,8.54-15.64-.99-6.08-6.1-11.31-12.49-11.38-14.37-.16-16.56,24.52-1.69,24.57,6.97.02,11.25-7.53,8.63-13.66-2.43-5.68-10.57-8.87-16.47-7.11-3.07.92-5.09,3.24-6.19,6.17-.29.77-1.23,2.7-1.02,3.39.74,2.44,7.26-3.6,8.23-4.13,2.93-1.6,6.3-1.95,9.45-.76,1.74.65,3.26,1.64,4.58,2.94,1.45,1.44,2.15,4.61,4.2,5.01-6.65-1.31-9.5,8.89-2.81,10.21,5.54,1.09,10.53-2.07,11.78-7.72s-1.87-11.2-5.68-14.99c-8.55-8.48-22.02-8.84-30.99-.82-3.98,3.56-6.67,9.23-4.26,14.43,2.11,4.57,7.69,6.99,12.08,3.96,1.88-1.3,2.92-3.19,3.65-5.32.26-.75,1.38-2.65-.12-2.13,1.27-.44,2.83,1.16,3.84.89,2.22-.59.66-5.18,3.52-4.08,1.02.39,1.29,1.71,1.38,2.64.13,1.31-.65,3.26-.95,3.31l6.51,6.51c.45-3.24,1.23-6.29,2.39-9.35,2.41-6.38-7.82-9.13-10.21-2.81h0Z"/>
        </g>
        <g class="cls-6">
          <path class="cls-5" d="M29.29,114.86l1.74-5.66c.81-2.65-.97-5.36-3.49-6.15-2-.63-3.83-.79-5.92-.7-1.2.05-3.27.88-4.33.37-1.51-.73-.39.12-.59-1.53-.19-1.56.08-2.94-.51-4.49-.43-1.12-1.05-2.16-1.97-2.96-.56-.48-3.33-1.29-3.57-1.83-.6-1.34,4.08-7.14,4.89-8.32,8.54-12.53,19.38-23.48,31.71-32.29-2.51-1.44-5.02-2.88-7.52-4.32.03,6.96-8.48,10.28-13.2,13.89-5.05,3.86-10.07,8.97-12.82,14.78-2.1,4.44-1.12,10.66,4.21,12.24s9.76-3.34,8.58-8.55l-4.82,6.33.24.26-1.01-7.85c-6.58,7.5-5.73,17-3.93,26.18l8.36-4.86c-3.67-3.31-5.42-7.31-5.26-12.24.2-6.44-9.8-6.43-10,0-.24,7.43,2.66,14.33,8.19,19.31,3.82,3.44,9.32.05,8.36-4.86-1.01-5.17-2.48-12.08,1.36-16.45,2.12-2.42,1.89-6.11-1.01-7.85-1.82-1.09-3.19-1.38-5.29-1.62-3.41-.4-5.46,3.5-4.82,6.33l.21.92.5-3.85c2.96,2.33,4.87,2.27,5.72-.16.6-.95,1.23-1.87,1.9-2.78,1.1-1.44,2.33-2.79,3.62-4.07,3.14-3.11,6.83-5.27,10.38-7.82,5.91-4.25,10.58-9.61,10.54-17.25-.02-3.52-4.34-6.59-7.52-4.32-8.22,5.88-15.89,12.46-22.71,19.93-6.46,7.08-13.4,15.24-17.51,23.96-1.62,3.44-2.09,7.52-.03,10.9.94,1.54,2.37,2.73,4,3.45.42.21.86.36,1.32.45,1.27.5,1.1.06-.5-1.32-.24.51-.15,1.78-.15,2.34,0,4.04,1.66,7.38,5.4,9.15,4.31,2.04,8.61-.17,12.86,1.17l-3.49-6.15-1.74,5.66c-1.89,6.17,7.76,8.8,9.64,2.66h0Z"/>
        </g>
        <g class="cls-6">
          <path class="cls-5" d="M159.41,142.31l-5.62,4.92,8.36,4.86,2.13-8.97c.82-3.46-1.56-5.93-4.82-6.33s-6.12.39-8.77,2.19c2.45,1.88,4.9,3.76,7.34,5.65,2.08-9.34,4.17-18.69,6.25-28.03,1.41-6.3-7.58-8.75-9.64-2.66-1.7,5.04-3.41,10.09-5.11,15.13l9.64,2.66c4.82-25.79,29.79-47.34,17.94-75.11l-1.79,6.84,4.2-1.94c2.25-1.04,3.33-4.84,1.79-6.84-1.93-2.53-1.71-3.36-2.13-6.53-.38-2.88-1.31-5.41-2.51-8.04l-1.79,6.84c.64-.59,1.37-.75,2.19-.48,5.54.35,6.94-8.95,1.33-9.82-2.49-.39-4.99-.77-7.48-1.16l3.49,3.49c-.55-1.96.51-4.25,2.76-4.4l-1.33-9.82c-6.03,1.53-10.53,6.05-11.79,12.18-.53,2.6.73,5.45,3.49,6.15,3.92.99,7.85,1.99,11.77,2.98l2.66-9.64c-6.2-1.48-11.53,4.34-10,10.53.74,3,3.21,5.22,5.85,6.59s7.75,1.28,9.13,4.12l4.32-7.52c-3.89-.51-7.7-.66-11.61-.45-2.18.12-4.25,1.47-4.82,3.67-1.22,4.74-1.19,9.36.18,14.06,1.66,5.68,9.29,4.11,9.82-1.33l-1.62,3.04,1.1,1.39c.58,1.17,1.7,2.34,2.45,3.44,1.43,2.1,2.78,4.24,4.05,6.44,2.6,4.52,4.82,9.22,6.67,14.09,1.52,3.99,8.91,5.45,9.64,0,.57-4.25.12-8.03-2.43-11.58-3.1-4.33-10.92-1.93-9.14,3.85,2.1,6.8,4.19,13.6,6.29,20.4,1.41,4.56,8.42,4.95,9.64,0,1.3-5.25,1.35-10.29.3-15.59l-9.64,2.66c1.62,7.5,2.18,15.09,1.62,22.75-.27,3.74-.85,7.43-1.69,11.08-.4,1.75-.86,3.48-1.38,5.2-.18.59-1.39,4.76-.98,4.46l3.85-.5c1.08.94,1.09.81.02-.4l-.69-.82c-.85-.77-2.1-1.52-3.24-1.8-2.53-.62-5.17.26-7.14,1.84-2.34,1.87-3.08,4.3-3.64,7.13-.63,3.13-1.02,5.75-4.95,5.05-2.88-.51-4.94-2.01-8.02-1.49-1.42.24-6.06,2.13-6.05,4.16-.97,1.05-.2,1.18,2.33.41-.36-.62-.68-1.26-.98-1.91-.87-1.75-1.67-3.53-2.49-5.3-1.77-3.84-3.48-7.71-5.15-11.6-2.62,2.02-5.24,4.04-7.85,6.06,5.09,4.14,10.18,8.28,15.26,12.42,4.25,3.46,10.73-.8,7.85-6.06-4.09-7.49-8.51-14.77-13.26-21.85-2.62,2.02-5.24,4.04-7.85,6.06,8.37,7.18,16.73,14.36,25.1,21.54,4.02,3.45,11.31-1.09,7.85-6.06-7.04-10.14-14.08-20.27-21.11-30.41-2.62,2.02-5.24,4.04-7.85,6.06,9.06,7,18.11,14.01,27.17,21.01,4.07,3.15,11.3-.87,7.85-6.06-7.63-11.48-16.48-22.03-26.55-31.45-2.85-2.67-9.05-1.04-8.54,3.54,2.09,18.54,19.23,25.91,35.06,30.68,4.32,1.3,7.65-3.62,5.65-7.34-6.68-12.39-18-22.2-27.6-32.29-2.02,2.62-4.04,5.24-6.06,7.85,11.36,7.65,21.35,16.93,29.99,27.56,3.17,3.9,9.86-.3,8.36-4.86-4.86-14.74-15.45-25.84-26.29-36.5-1.62,2.79-3.24,5.57-4.86,8.36,10.85,3.48,19.83,10.65,25.7,20.4,2.84,4.72,10.96,1.68,9.14-3.85-5.82-17.7-13.71-34.6-23.64-50.37-2.52-4.01-9.54-2.64-9.32,2.52.42,9.71,2.28,19.16,5.76,28.24,3.05-1.28,6.09-2.57,9.14-3.85-2.43-3.21-4.86-6.42-7.29-9.63-3.11-4.11-8.66-2.53-9.32,2.52l-.83,6.37,9.82-1.33c-.85-2.37-1.49-4.71-1.94-7.19-.95-5.12-8.28-4.39-9.64,0-2.51,8.09-4.58,16.28-6.13,24.61-.64,3.43-2.1,8.01-1.81,11.54s3.53,5.91,5.63,8.32c4.23,4.86,11.28-2.23,7.07-7.07-1.39-1.6-2.77-3.19-4.16-4.79l1.29,4.86c1.65-11.82,4.23-23.42,7.77-34.82h-9.64c.46,2.48,1.09,4.82,1.94,7.19,2,5.55,9.1,4.2,9.82-1.33l.83-6.37-9.32,2.52,7.29,9.63c3.07,4.06,11.36,1.95,9.14-3.85-3.16-8.28-5.01-16.72-5.4-25.58l-9.32,2.52c9.48,15.06,17.07,31.08,22.63,47.98,3.05-1.28,6.09-2.57,9.14-3.85-7.23-12.01-18.34-20.72-31.68-25-4.82-1.54-8.34,4.94-4.86,8.36,9.52,9.36,19.43,19.11,23.72,32.09,2.79-1.62,5.57-3.24,8.36-4.86-9.18-11.29-19.95-20.99-32.01-29.12-4.83-3.26-9.87,3.85-6.06,7.85,9,9.46,19.77,18.67,26.03,30.27,1.88-2.45,3.76-4.9,5.65-7.34-10.61-3.2-26.23-7.84-27.72-21.04l-8.54,3.54c9.46,8.85,17.82,18.64,24.99,29.42,2.62-2.02,5.24-4.04,7.85-6.06-9.06-7-18.11-14.01-27.17-21.01-4.04-3.12-11.42.93-7.85,6.06,7.04,10.14,14.08,20.27,21.11,30.41,2.62-2.02,5.24-4.04,7.85-6.06-8.37-7.18-16.73-14.36-25.1-21.54-4.04-3.47-11.22,1.04-7.85,6.06,4.75,7.09,9.17,14.37,13.26,21.85,2.62-2.02,5.24-4.04,7.85-6.06-5.09-4.14-10.18-8.28-15.26-12.42-4.53-3.69-10.11.79-7.85,6.06,2.71,6.33,9.85,31.07,20.94,21.66.57-.48,1.66-2.52,2.26-2.77-1.09.45,2.38,1.2,2.46,1.23,2.39.7,4.64,1.04,7.11.52,4.76-.99,8.91-4.52,10.29-9.26.23-.77,1.11-4.18.76-4.62-.76-.95-3.19-1.31-1.27.82,1.4,1.56,4.03,2.31,6.07,1.74,5.53-1.54,6.83-10.62,7.95-15.27,3.18-13.18,3.13-26.8.27-40.02-1.37-6.31-10.89-3.62-9.64,2.66.7,3.53.56,6.8-.3,10.27h9.64c-2.1-6.8-4.19-13.6-6.29-20.4-3.05,1.28-6.09,2.57-9.14,3.85.83,1.16,1.62,2.35,1.42,3.88h9.64c-3.77-9.93-8.71-19.29-15.2-27.71-2.34-3.04-5.34-6.06-9.52-5.82-4.46.26-7.16,3.57-7.57,7.77l9.82-1.33c-.89-3.05-.97-5.68-.18-8.75l-4.82,3.67c3.91-.21,7.72-.06,11.61.45,4.1.54,5.76-4.55,4.32-7.52-1.31-2.7-3.49-4.44-6.18-5.64-1.18-.53-2.35-.88-3.58-1.25-.94-.23-1.88-.49-2.8-.79-1.42-1.32-2.66-.94-3.7,1.13,6.25,1.49,8.91-8.06,2.66-9.64-3.92-.99-7.85-1.99-11.77-2.98l3.49,6.15c.58-2.86,1.97-4.48,4.8-5.2,5.36-1.36,4.39-10.19-1.33-9.82-8.63.56-14.81,8.53-12.4,17.05.43,1.53,1.82,3.23,3.49,3.49,2.49.39,4.99.77,7.48,1.16l1.33-9.82c-2.64-.17-4.98.47-7.24,1.85-2.48,1.51-2.94,4.34-1.79,6.84,1.38,3.02.95,5.43,1.26,8.52.25,2.48,1.91,4.13,3.38,6.05l1.79-6.84-4.2,1.94c-2.66,1.23-2.77,4.56-1.79,6.84,4.96,11.63-.3,24.81-5.62,35.32s-11.17,20.52-13.33,32.09c-1.18,6.3,7.57,8.81,9.64,2.66,1.7-5.04,3.41-10.09,5.11-15.13l-9.64-2.66c-2.08,9.34-4.17,18.69-6.25,28.03-.88,3.95,3.52,8.25,7.34,5.65,1.39-.95,2.05-1.03,3.72-.83-1.61-2.11-3.21-4.22-4.82-6.33-.71,2.99-1.42,5.98-2.13,8.97-1.19,5.01,4.63,8.13,8.36,4.86l5.62-4.92c4.85-4.25-2.25-11.3-7.07-7.07h0Z"/>
        </g>
        <g class="cls-6">
          <path class="cls-5" d="M201.92,151.77c-.54,8.35,4.6,15.18,10.77,20.25,5.57,4.57,16.08,9.4,16.78,17.57s-6.82,14.79-8.11,22.4c-1.33,7.86,2.26,15.13,8.56,19.77,7.45,5.49,16.78,5.87,25.62,4.43,4.81-.79,9.77-2.87,14.67-2.83s6.45,3.91,8.92,7.6c4.68,6.98,11.36,9.86,19.66,9.86,8.41,0,16.11-1.91,24.17,1.35,9.21,3.74,17.89-2.92,17.16-12.86-.74-9.99-9.04-19.53-16.43-25.6l-1.01,7.85c.84-.53,1.72-.6,2.63-.22,5.74,2.5,10.83-5.46,5.05-8.63-7.36-4.04-9.68-13.25-13.5-20.16-1.88-3.39-4.16-6.7-7.14-9.22-1.75-1.48-3.63-2.61-5.73-3.53-1.06-.47-2.19-.84-3.22-1.38l-1.2-.64c-.56-.82-1.03-.78-1.42.13,5.56-.92,4.26-10.11-1.33-9.82l.76.13,2.3,2.99-.1.81-2.3,2.99.88-.4-3.85.5-.53-.3-1.46-3.54.08.96c2.51-1.44,5.02-2.88,7.52-4.32-2.84-1.73-5.68-3.45-8.52-5.18-1.29-.78-2.62-1.52-3.87-2.35l-1.08-.68c-1.37-1.56-3.05-1.39-5.05.5l3.54-8.54c-3.04-.19-5.56-1.08-8.15-2.63-1.28,3.05-2.57,6.09-3.85,9.14,3.55,1,7.09,2.01,10.64,3.01v-9.64c-4.84,1.26-9.03-.54-12.06-4.39-1.62,2.79-3.24,5.57-4.86,8.36,6.11,2.42,12.21,4.84,18.32,7.25l1.33-9.82c-4.1-.26-7.63-1.46-11.14-3.56l-5.05,8.63c5.15,2.37,10.29,3.67,15.97,3.84,6.45.2,6.42-9.74,0-10-4.33-.17-8.17-1.2-12.01-3.23-1.28,3.05-2.57,6.09-3.85,9.14,5.44,2.18,10.89,4.35,16.33,6.53,5.23,2.09,7.5-4.98,4.86-8.36-5-6.4-12.58-9.79-20.65-9.72l4.32,7.52c5.43-9.59-4.5-22.66-15.29-18.74-4.18,1.52-5.3,8.69,0,9.64,4.23.76,8.46,1.53,12.69,2.29l-3.67-4.82c.07,1.74-6.97-4.4-7.4-4.78-2.48-2.17-5.16-4.12-8.12-5.59s-6.08-2.64-9.31-3.29c-1.45-.29-2.95-.51-4.42-.64-1.04-.1-2.08-.16-3.13-.16-1.51-.33-1.59.08-.23,1.22l-.5,3.85-4.26.66-2.3-2.99.1.6,2.3-5.65c-3.79,1.6-7.62-.31-10-3.27-2.61-3.25-9.01-.66-8.54,3.54.77,6.83-1.38,13.67-6.99,17.99l6.84,6.84c4.73-9.32,9.46-18.63,14.19-27.95l-9.32-2.52c-1.57,14.23.44,28.57,5.88,41.81l6.15-6.15c-5.15-.94-9.43-3.02-13.17-6.71-3.92-3.86-11.14,1.24-7.85,6.06,6.1,8.95,13.81,16.3,23.12,21.85,1.28-3.05,2.57-6.09,3.85-9.14-8.37-3.16-12.86-11.8-12.01-20.44l-8.54,3.54c10.99,10.88,21.47,22.23,31.43,34.06,4.19,4.98,11-2.12,7.07-7.07l-27.6-34.76-7.07,7.07c10.15,8.55,20.31,17.09,30.46,25.64,4.93,4.15,11.27-2.14,7.07-7.07-7.03-8.26-13.21-17.11-18.64-26.51l-6.84,6.84c11.02,7.52,21.1,16.16,30.32,25.8,4.54,4.75,11.03-2.18,7.07-7.07-11.03-13.62-23.02-26.39-35.92-38.26-1.85-1.7-5.29-2.15-7.07,0-3.21,3.88-3.75,7.97-1.6,12.54,1.01,2.15,3.58,2.62,5.65,2.3,16.19-2.49,28.04,12.63,36.66,23.97,3.79,4.98,12.32.39,8.63-5.05-2.06-3.03-4.12-6.07-6.18-9.1l-6.84,6.84c9.37,6.06,17.83,13.17,25.48,21.28,3.8,4.03,11.28-1.42,7.85-6.06-3.22-4.36-6.8-7.95-11.14-11.2-4.58-3.43-10.09,3.99-6.06,7.85,9.94,9.51,18.72,19.99,26.28,31.49,2.62-2.02,5.24-4.04,7.85-6.06-4.61-5.53-9.99-10.15-16.07-14-3.4-2.15-9.07,1.52-7.34,5.65,5.09,12.19,11.78,23.26,20.27,33.39,3.46,4.12,9.28-.41,8.36-4.86-1.59-7.67-3.18-15.34-4.77-23.02-2.45,1.88-4.9,3.76-7.34,5.65,6.89,4.63,8.51,13.46,10.11,21.05,1.75,8.34,3.37,16.8,7.99,24.12,3.15,4.99,10.09,1.62,9.14-3.85-1.68-9.66-6.81-18.36-14.47-24.47-2.86-2.28-7.25-1.72-8.36,2.21-2.22,7.9-1.25,15.74,2.7,22.91l8.63-5.05c-2.3-3.17-4.61-6.35-6.91-9.52-2.63-3.62-7.54-2.96-9.14,1.19-1.81,4.71-13.08,4.25-16.74,2.73-3.31-1.37-3.45-5.61-3.98-8.78-.65-3.88-.99-7.8-1.28-11.72-1.16-15.42-1.48-31.13-9.34-44.92-3.22-5.65-11.42-.68-8.63,5.05,9.95,20.46,17.01,42.12,21.22,64.47,1.06,5.6,9.89,4.22,9.82-1.33-.29-22.54-.83-45.61-9.22-66.85-2.32-5.87-11.15-3.75-9.64,2.66,5.11,21.66,13.27,41.73,21.42,62.35,2.79-1.62,5.57-3.24,8.36-4.86-3.65-4.19-4.9-9.58-3.64-14.96l-8.36,2.21c2.29,2.7,4.58,5.4,6.86,8.11,2.02-2.62,4.04-5.24,6.06-7.85-2.25-1.66-4.49-3.31-6.74-4.97-3.39-2.5-8.9,1.7-7.34,5.65s2.97,7.57,4.46,11.36c3.05-1.28,6.09-2.57,9.14-3.85-5.17-8.7-10.34-17.39-15.52-26.09-4.37-7.36-12.77-17.23-10.61-26.34l-9.14,1.19c11.37,22.31,23,44.48,34.91,66.51,2.33,4.3,9.53,2.42,9.32-2.52-.64-14.87-3.04-29.9-10.09-43.19-3.3-6.22-7.51-10.52-14.15-12.96s-9.02-6.53-13.34-11.49c-3.49-4-8.05-7.28-13.56-7.37-6.2-.1-11.24,3.53-16.45,6.35-4.89,2.64-11.78,1.11-14.55,6.77-1.48,3.03-1.56,7.01-2.11,10.3-.75,4.45-1.49,8.89-2.24,13.34-1.31,7.78-3.95,16.65-.92,24.32,2.63,6.65,9.51,10.78,16.55,8.93,2.68-.7,4.12-3.54,3.49-6.15-1.5-6.26-4.08-12.1-7.74-17.4l-6.84,6.84c6.33,3.79,11.76,8.44,16.55,14.04,3.88,4.54,10.23-1.24,7.85-6.06-5.85-11.84-11.7-23.69-17.54-35.53-2.62,2.02-5.24,4.04-7.85,6.06,9.92,9.07,17.59,19.86,22.98,32.17l8.63-5.05c-7.14-14.81-13.24-30.04-18.34-45.67-3.05,1.28-6.09,2.57-9.14,3.85,10.91,15.15,21.35,30.63,31.32,46.42,2.89,4.57,11.15,1.7,9.14-3.85-6.43-17.75-14.01-35.06-22.74-51.8-2.62,2.02-5.24,4.04-7.85,6.06,8.47,8.14,15.96,17.09,22.4,26.92,2.94,4.48,11.16,1.76,9.14-3.85-4.08-11.32-9.16-22.2-15.33-32.54-3.3-5.53-11.79-.58-8.63,5.05,3.07,5.48,6.14,10.96,9.2,16.44,2.78,4.97,10.62,1.61,9.14-3.85l-1.86-6.87-6.15,6.15c1.83.45,2.5,1,3.4,2.65,3.05,5.67,11.69.62,8.63-5.05-2.03-3.76-5.23-6.23-9.37-7.25-3.68-.91-7.17,2.4-6.15,6.15l1.86,6.87c3.05-1.28,6.09-2.57,9.14-3.85-3.07-5.48-6.14-10.96-9.2-16.44l-8.63,5.05c5.73,9.6,10.53,19.63,14.32,30.15,3.05-1.28,6.09-2.57,9.14-3.85-6.9-10.52-14.89-20.22-23.97-28.94-4.16-4-10.47,1.04-7.85,6.06,8.33,15.99,15.59,32.46,21.73,49.41l9.14-3.85c-9.97-15.79-20.41-31.26-31.32-46.42-3.08-4.28-11.03-1.93-9.14,3.85,5.37,16.44,11.84,32.48,19.35,48.06,2.83,5.86,11.17.74,8.63-5.05-5.7-13.01-14.07-24.61-24.55-34.19-4.27-3.91-10.37.97-7.85,6.06,5.85,11.84,11.7,23.69,17.54,35.53,2.62-2.02,5.24-4.04,7.85-6.06-5.32-6.22-11.55-11.41-18.57-15.61-4.11-2.46-9.76,2.62-6.84,6.84,3.21,4.65,5.41,9.51,6.73,15.01l3.49-6.15c-8.11,2.13-4.38-14.68-3.81-18.09,1.31-7.82,1.98-16.15,4-23.82l.21-1.07c-.44,1.15-.03,1.44,1.22.88,1,.17,2.95-.52,3.88-.82,2.56-.83,4.95-2.15,7.27-3.48,4.69-2.68,9.19-5.93,14-1.74,3.95,3.44,6.38,8.28,10.48,11.62,4.9,3.99,11.77,4.11,15.51,9.51,8.16,11.79,10.16,27.71,10.76,41.65l9.32-2.52c-11.9-22.03-23.54-44.2-34.91-66.51-1.94-3.81-8.17-2.89-9.14,1.19-2.56,10.84,3.29,20.03,8.62,29,6.17,10.38,12.35,20.76,18.52,31.14,2.78,4.68,11.28,1.59,9.14-3.85-1.49-3.79-2.97-7.57-4.46-11.36-2.45,1.88-4.9,3.76-7.34,5.65,2.25,1.66,4.49,3.31,6.74,4.97,4.85,3.58,9.48-3.82,6.06-7.85-2.29-2.7-4.58-5.4-6.86-8.11-2.42-2.86-7.54-1.28-8.36,2.21-2.12,9.02.13,17.72,6.21,24.69,3.17,3.64,10.2-.21,8.36-4.86-8.15-20.62-16.3-40.69-21.42-62.35l-9.64,2.66c8.09,20.49,8.58,42.46,8.86,64.2l9.82-1.33c-4.38-23.21-11.9-45.62-22.23-66.86l-8.63,5.05c10.57,18.55,4.6,40.43,10.87,60.03,2.91,9.09,10.95,11.09,19.67,11.08,8.24-.01,15.93-2.65,19.07-10.81l-9.14,1.19c2.3,3.17,4.61,6.35,6.91,9.52,3.71,5.11,11.81.71,8.63-5.05-2.67-4.84-3.18-9.91-1.69-15.2l-8.36,2.21c6.53,5.21,10.47,11.82,11.9,20.06,3.05-1.28,6.09-2.57,9.14-3.85-9.77-15.5-4.8-37.41-21.68-48.75-3.88-2.61-8.17,1.68-7.34,5.65,1.59,7.67,3.18,15.34,4.77,23.02,2.79-1.62,5.57-3.24,8.36-4.86-7.3-8.7-13.32-18.49-17.7-28.98-2.45,1.88-4.9,3.76-7.34,5.65,5.39,3.41,9.97,7.54,14.05,12.44,3.62,4.35,10.96-1.33,7.85-6.06-8.01-12.19-17.3-23.43-27.84-33.52-2.02,2.62-4.04,5.24-6.06,7.85,2.87,2.15,5.42,4.73,7.55,7.61,2.62-2.02,5.24-4.04,7.85-6.06-8.22-8.71-17.45-16.33-27.5-22.84-4.11-2.66-9.65,2.7-6.84,6.84,2.06,3.03,4.12,6.07,6.18,9.1l8.63-5.05c-11.86-15.6-26.35-31.89-47.95-28.56l5.65,2.3.04-.42h-7.07c12.9,11.87,24.89,24.64,35.92,38.26l7.07-7.07c-9.79-10.26-20.63-19.37-32.34-27.37-4.26-2.91-9.23,2.71-6.84,6.84,5.86,10.13,12.63,19.62,20.21,28.53l7.07-7.07c-10.15-8.55-20.31-17.09-30.46-25.64-4.99-4.2-11.05,2.06-7.07,7.07,9.2,11.59,18.4,23.17,27.6,34.76l7.07-7.07c-9.96-11.82-20.44-23.18-31.43-34.06-3.31-3.27-8.13-.62-8.54,3.54-1.32,13.33,7.06,25.44,19.35,30.08,5.41,2.05,8.59-6.32,3.85-9.14-7.82-4.65-14.41-10.74-19.54-18.26-2.62,2.02-5.24,4.04-7.85,6.06,4.89,4.82,10.81,8.04,17.58,9.28,3.28.6,7.74-2.27,6.15-6.15-5.15-12.55-7.01-25.67-5.52-39.15.55-4.96-7.16-6.77-9.32-2.52-4.73,9.32-9.46,18.63-14.19,27.95-2.02,3.97,2.53,10.16,6.84,6.84,8.3-6.39,13.14-16.01,11.94-26.62l-8.54,3.54c5.46,6.8,14.38,8.1,22.11,4.83,2.15-.91,2.64-3.66,2.3-5.65-1.19-6.99-11.6-5-12.41,1.2-1.2,9.21,11,7.56,16.38,8.9,4.25,1.06,8.19,3.09,11.49,5.97,2.98,2.59,5.57,5.6,9.34,7.08,6.75,2.64,15.43-1.51,15.13-9.37-.08-2.04-1.48-4.43-3.67-4.82-4.23-.76-8.46-1.53-12.69-2.29v9.64c2.24-.81,5.34,1.66,3.99,4.05-1.85,3.27.48,7.56,4.32,7.52,5.68-.05,10.11,2.36,13.58,6.79l4.86-8.36c-5.44-2.18-10.89-4.35-16.33-6.53-5.27-2.11-8.81,6.52-3.85,9.14,5.4,2.85,10.95,4.35,17.05,4.59v-10c-3.84-.12-7.42-.86-10.92-2.47-5.75-2.64-10.68,5.27-5.05,8.63,5.04,3.01,10.35,4.55,16.19,4.92,6.06.38,6.19-7.9,1.33-9.82-6.11-2.42-12.21-4.84-18.32-7.25-5.22-2.07-7.54,4.97-4.86,8.36,5.19,6.58,13.78,9.05,21.79,6.96,4.82-1.26,4.69-8.31,0-9.64-3.55-1-7.09-2.01-10.64-3.01-5.49-1.55-8.71,6.23-3.85,9.14,4.12,2.47,8.42,3.7,13.2,4,4.38.28,6.53-5.63,3.54-8.54-5.53-5.37-14.41.14-13.09,7.47.62,3.42,3.28,5.88,6.02,7.74,4.34,2.93,8.99,5.49,13.47,8.21,3.06,1.86,7.82-.5,7.52-4.32-.42-5.36-6.62-9.61-11.16-5.08-4.29,4.29-.06,11.22,5.4,10.94l-1.33-9.82c-6.2,1.03-8.26,8.76-5.45,13.79,3.23,5.8,10.91,5.85,15.04,10.73,7.77,9.2,8.8,22.29,20.23,28.56l5.05-8.63c-4.43-1.93-8.36-1.99-12.73.22-2.69,1.36-3.43,5.87-1.01,7.85,3.06,2.51,5.94,5.26,8.29,8.47,2.1,2.86,5.35,7.15,5.31,10.87-.07,5.56-4.97,1.97-7.96,1.09s-6.49-1.18-9.72-1.14c-6.34.06-14.19,2.36-20.25-.22s-7.14-10.18-12.29-13.72c-13.51-9.3-30.89,7.91-44.47-2.64-6.67-5.19-4.16-11.75-.89-18.12,2.98-5.78,5.8-11.84,4.51-18.51-1.42-7.34-7-12.64-12.7-16.98s-15.07-9.45-14.52-18.1c.41-6.43-9.59-6.4-10,0h0Z"/>
        </g>
      </g>
    </g>
  </g>
</svg>