<?xml version="1.0" encoding="UTF-8"?>
<svg id="Layer_2" data-name="Layer 2" xmlns="http://www.w3.org/2000/svg" viewBox="0 0 69.23 78.96">
  <defs>
    <style>
      .cls-1 {
        fill: #e2ba13;
      }
    </style>
  </defs>
  <g id="OBJECTS">
    <path class="cls-1" d="M53.9,39.48c8.7-5.76,17.37-15.47,14.9-19.74-2.46-4.27-15.21-1.61-24.55,3.04-.64-10.41-4.71-22.77-9.64-22.77s-9,12.36-9.64,22.77C15.63,18.13,2.89,15.47.43,19.74c-2.46,4.27,6.21,13.98,14.9,19.74C6.63,45.24-2.04,54.95.43,59.22c2.46,4.27,15.21,1.61,24.55-3.04.64,10.41,4.71,22.77,9.64,22.77s9-12.36,9.64-22.77c9.34,4.65,22.08,7.31,24.55,3.04,2.46-4.27-6.21-13.98-14.9-19.74Z"/>
  </g>
</svg>